<svg id="Слой_1" xmlns="http://www.w3.org/2000/svg" viewBox="0 0 216.2 179.6" enable-background="new 0 0 216.2 179.6"><style>.st0{fill:#fff}.st1{fill:#004289}.st2{fill:#e42313}.st3{filter:url(#Adobe_OpacityMaskFilter)}.st4{filter:url(#Adobe_OpacityMaskFilter_1_)}.st5{mask:url(#SVGID_1_);fill:url(#SVGID_2_)}.st6{opacity:.5;fill:url(#SVGID_3_)}.st7{fill:#003168}.st8{fill:#003671}.st9{fill:#c1210d}.st10{fill:#bec0c2}</style><path class="st0" d="M213.3 58c-5.2-17.5-16.8-32.2-33.7-42.6C163.3 5.3 143.4 0 122 0c-13 0-26.1 2-38.9 5.8C25.1 23.3-10.8 75.2 3 121.5c5.2 17.5 16.8 32.2 33.7 42.6 16.3 10.1 36.2 15.4 57.6 15.4 13 0 26.1-2 38.9-5.9 57.9-17.4 93.8-69.3 80.1-115.6z"/><path class="st1" d="M206.8 59.9c-2.4-8.2-6.4-15.6-11.5-22.1-8.4 10.5-20.1 21.2-34.5 31.5 3 4.1 4.7 8.6 4.5 13.7-1.1 31.6-102.6 60.3-135 68.6 23.8 20.6 62.4 28 101 16.4 54.6-16.6 88.4-64.9 75.5-108.1z"/><path class="st2" d="M84.8 11.6C30.3 28.1-3.5 76.5 9.4 119.6c0 .1.1.2.1.2C33.2 114.6 131 92 131 74.8 131 49.1 36.6 40 36.6 40c37.2-2.2 106.1 4.9 124.3 29.2 14.4-10.3 26.1-21 34.5-31.5C173.3 9.9 129-1.7 84.8 11.6z"/><defs><filter id="Adobe_OpacityMaskFilter" filterUnits="userSpaceOnUse" x="37.3" y="6.1" width="141.5" height="32"><feFlood result="back" flood-color="#fff" flood-opacity="1"/><feBlend in="SourceGraphic" in2="back"/></filter></defs><mask maskUnits="userSpaceOnUse" x="37.3" y="6.1" width="141.5" height="32" id="SVGID_1_"><g class="st3"><defs><filter id="Adobe_OpacityMaskFilter_1_" filterUnits="userSpaceOnUse" x="37.3" y="6.1" width="141.5" height="32"><feFlood result="back" flood-color="#fff" flood-opacity="1"/><feBlend in="SourceGraphic" in2="back"/></filter></defs><linearGradient id="SVGID_2_" gradientUnits="userSpaceOnUse" x1="37.35" y1="22.119" x2="178.879" y2="22.119"><stop offset=".25" stop-color="#fff"/><stop offset=".734"/></linearGradient><path class="st5" d="M84.8 11.6c-18.6 5.6-34.7 14.9-47.5 26.5C59 21.7 120.9 15.6 164 37.5l14.9-14.9c-24-16.4-59.1-21.5-94.1-11z"/></g></mask><linearGradient id="SVGID_3_" gradientUnits="userSpaceOnUse" x1="37.35" y1="22.119" x2="178.879" y2="22.119"><stop offset=".25" stop-color="#fff"/><stop offset=".734" stop-color="#fff"/></linearGradient><path class="st6" d="M84.8 11.6c-18.6 5.6-34.7 14.9-47.5 26.5C59 21.7 120.9 15.6 164 37.5l14.9-14.9c-24-16.4-59.1-21.5-94.1-11z"/><path class="st7" d="M209.5 76.8c-17.7 31.7-95 100.4-178.7 75.1 23.9 20.3 62.3 27.5 100.6 15.9 47.4-14.2 79.2-52.7 78.1-91z"/><path class="st8" d="M195.3 37.8c-8.4 10.5-20.1 21.2-34.5 31.5 3 4.1 4.7 8.6 4.5 13.7v.1c19.9-14.3 31-27 36.6-35.2-1.9-3.6-4.1-6.9-6.6-10.1z"/><path class="st9" d="M149.1 9.5c20.6 13.5 19.4 35.2 6.4 54.3 2.1 1.7 3.8 3.6 5.3 5.5 14.4-10.3 26.1-21 34.5-31.5-10.9-13.7-27.2-23.5-46.2-28.3z"/><path class="st10" d="M134.3 62s12.4 7.2 10.3 17.7c-.7 3.4-3.1 7.4-10.2 12.5-9.1 6.5-19.8 10.9-24.4 12.7-10.3 4.3-40.5 16-94 29.9.7 1.2 1.5 2.3 2.2 3.5 11.3-3 40-10.7 63.4-18.7 23.9-8.2 37-14 44.7-18.2 10-5.4 14.9-9.4 17.6-12.7 2.8-3.5 4-6.9 4-9.9C148 68 134.3 62 134.3 62z"/></svg>